name Walk1.mot
datacolumns 19
datarows 25
range 2.02000000 2.14000000
endheader

                time	   L_ground_force_vx	   L_ground_force_vy	   L_ground_force_vz	   L_ground_force_px	   L_ground_force_py	   L_ground_force_pz	   R_ground_force_vx	   R_ground_force_vy	   R_ground_force_vz	   R_ground_force_px	   R_ground_force_py	   R_ground_force_pz	   L_ground_torque_x	   L_ground_torque_y	   L_ground_torque_z	   R_ground_torque_x	   R_ground_torque_y	   R_ground_torque_z	
          2.02000000	          0.00000000	          0.00000000	          0.00000000	          0.00000000	          0.00000000	          0.00000000	         24.87785954	         85.74821579	          1.62780377	          0.41930843	          0.00000000	          0.06022930	          0.00000000	          0.00000000	          0.00000000	          0.00000000	         -5.30880964	          0.00000000	
          2.02500000	          0.00000000	          0.00000000	          0.00000000	          0.00000000	          0.00000000	          0.00000000	         19.13317659	         62.00215839	          2.36638748	          0.37739965	          0.00000000	          0.05499039	          0.00000000	          0.00000000	          0.00000000	          0.00000000	         -4.13318348	          0.00000000	
          2.03000000	          0.00000000	          0.00000000	         -0.00000000	          0.00000000	          0.00000000	          0.00000000	         14.01742835	         42.27242912	          2.70403535	          0.32804417	          0.00000000	          0.04853055	          0.00000000	          0.00000000	          0.00000000	          0.00000000	         -3.07533273	          0.00000000	
          2.03500000	          0.00000000	          0.00000000	         -0.00000000	          0.00000000	          0.00000000	          0.00000000	          9.64801895	         26.40318986	          2.72454339	          0.27329304	          0.00000000	          0.04105461	          0.00000000	          0.00000000	          0.00000000	          0.00000000	         -2.16014415	          0.00000000	
          2.04000000	          0.00000000	          0.00000000	         -0.00000000	         -0.00000000	          0.00000000	         -0.00000000	          6.08476638	         14.15270299	          2.52440854	          0.21697447	          0.00000000	          0.03308825	          0.00000000	          0.00000000	          0.00000000	          0.00000000	         -1.40308860	          0.00000000	
          2.04500000	          0.00000000	          0.00000000	         -0.00000000	         -0.00000000	          0.00000000	         -0.00000000	          3.31849881	          5.17747546	          2.19642860	          0.16370129	          0.00000000	          0.02536323	          0.00000000	          0.00000000	          0.00000000	          0.00000000	         -0.80663988	          0.00000000	
          2.05000000	          0.00000000	          0.00000000	         -0.00000000	         -0.00000000	          0.00000000	         -0.00000000	          1.28209188	         -0.98763979	          1.81239047	          0.11659144	          0.00000000	          0.01840341	          0.00000000	         -0.00000000	          0.00000000	          0.00000000	         -0.36035341	          0.00000000	
          2.05500000	          0.00000000	          0.00000000	         -0.00000000	         -0.00000000	          0.00000000	         -0.00000000	         -0.12521440	         -4.86309841	          1.42277608	          0.07715984	          0.00000000	          0.01248472	          0.00000000	         -0.00000000	          0.00000000	          0.00000000	         -0.04565895	          0.00000000	
          2.06000000	          0.00000000	          0.00000000	         -0.00000000	         -0.00000000	          0.00000000	         -0.00000000	         -1.01778971	         -6.96374266	          1.06039954	          0.04577070	          0.00000000	          0.00770179	          0.00000000	         -0.00000000	          0.00000000	          0.00000000	          0.15975959	          0.00000000	
          2.06500000	          0.00000000	          0.00000000	         -0.00000000	         -0.00000000	          0.00000000	         -0.00000000	         -1.50968611	         -7.76009728	          0.74414970	          0.02202155	          0.00000000	          0.00402547	          0.00000000	         -0.00000000	          0.00000000	          0.00000000	          0.27885546	          0.00000000	
          2.07000000	          0.00000000	          0.00000000	         -0.00000000	         -0.00000000	          0.00000000	         -0.00000000	         -1.70573182	         -7.65705421	          0.48249156	          0.00505004	          0.00000000	          0.00134955	          0.00000000	         -0.00000000	          0.00000000	          0.00000000	          0.33317525	          0.00000000	
          2.07500000	          0.00000000	          0.00000000	         -0.00000000	         -0.00000000	          0.00000000	         -0.00000000	         -1.69654938	         -6.98539428	          0.27653602	         -0.00623286	          0.00000000	         -0.00047320	          0.00000000	         -0.00000000	          0.00000000	          0.00000000	          0.34165934	          0.00000000	
          2.08000000	          0.00000000	          0.00000000	         -0.00000000	         -0.00000000	          0.00000000	         -0.00000000	         -1.55648431	         -6.00221155	          0.12259006	         -0.01297542	          0.00000000	         -0.00160467	          0.00000000	         -0.00000000	          0.00000000	          0.00000000	          0.32007890	          0.00000000	
          2.08500000	         -0.00000000	          0.00000000	         -0.00000000	         -0.00000000	          0.00000000	         -0.00000000	         -1.34356421	         -4.89701315	          0.01417211	         -0.01627310	          0.00000000	         -0.00220335	          0.00000000	         -0.00000000	          0.00000000	          0.00000000	          0.28092541	          0.00000000	
          2.09000000	         -0.00000000	         -0.00000000	         -0.00000000	         -0.00000000	          0.00000000	         -0.00000000	         -1.10076299	         -3.80097630	         -0.05647506	         -0.01710083	          0.00000000	         -0.00241301	          0.00000000	         -0.00000000	          0.00000000	          0.00000000	          0.23359923	          0.00000000	
          2.09500000	         -0.00000000	         -0.00000000	         -0.00000000	         -0.00000000	          0.00000000	         -0.00000000	         -0.85800223	         -2.79749783	         -0.09731323	         -0.01627916	          0.00000000	         -0.00235662	          0.00000000	         -0.00000000	          0.00000000	          0.00000000	          0.18477500	          0.00000000	
          2.10000000	         -0.00000000	         -0.00000000	          0.00000000	         -0.00000000	          0.00000000	         -0.00000000	         -0.63446685	         -1.93273828	         -0.11580566	         -0.01446476	          0.00000000	         -0.00213408	          0.00000000	         -0.00000000	          0.00000000	          0.00000000	          0.13885149	          0.00000000	
          2.10500000	         -0.00000000	         -0.00000000	          0.00000000	         -0.00000000	          0.00000000	         -0.00000000	         -0.44093929	         -1.22532850	         -0.11850567	         -0.01215723	          0.00000000	         -0.00182259	          0.00000000	         -0.00000000	          0.00000000	          0.00000000	          0.09842016	          0.00000000	
          2.11000000	         -0.00000000	         -0.00000000	          0.00000000	          0.00000000	          0.00000000	          0.00000000	         -0.28196084	         -0.67477164	         -0.11086477	         -0.00971597	          0.00000000	         -0.00147869	          0.00000000	         -0.00000000	          0.00000000	          0.00000000	          0.06470849	          0.00000000	
          2.11500000	         -0.00000000	         -0.00000000	          0.00000000	          0.00000000	          0.00000000	          0.00000000	         -0.15771136	         -0.26834392	         -0.09719674	         -0.00738202	          0.00000000	         -0.00114121	          0.00000000	         -0.00000000	          0.00000000	          0.00000000	          0.03797219	          0.00000000	
          2.12000000	         -0.00000000	         -0.00000000	          0.00000000	          0.00000000	          0.00000000	          0.00000000	         -0.06555950	          0.01351307	         -0.08074461	         -0.00530147	          0.00000000	         -0.00083453	          0.00000000	          0.00000000	          0.00000000	          0.00000000	          0.01782358	          0.00000000	
          2.12500000	         -0.00000000	         -0.00000000	          0.00000000	          0.00000000	          0.00000000	          0.00000000	         -0.00127934	          0.19319377	         -0.06380826	         -0.00354798	          0.00000000	         -0.00057187	          0.00000000	          0.00000000	          0.00000000	          0.00000000	          0.00349303	          0.00000000	
          2.13000000	         -0.00000000	         -0.00000000	          0.00000000	          0.00000000	          0.00000000	          0.00000000	          0.04004346	          0.29314024	         -0.04790084	         -0.00214289	          0.00000000	         -0.00035820	          0.00000000	          0.00000000	          0.00000000	          0.00000000	         -0.00597313	          0.00000000	
          2.13500000	         -0.00000000	         -0.00000000	          0.00000000	          0.00000000	          0.00000000	          0.00000000	          0.06337602	          0.33405012	         -0.03391135	         -0.00107236	          0.00000000	         -0.00019284	          0.00000000	          0.00000000	          0.00000000	          0.00000000	         -0.01157119	          0.00000000	
          2.14000000	         -0.00000000	         -0.00000000	          0.00000000	          0.00000000	          0.00000000	          0.00000000	          0.07332646	          0.33386551	         -0.02225818	         -0.00030104	          0.00000000	         -0.00007156	          0.00000000	          0.00000000	          0.00000000	          0.00000000	         -0.01424597	          0.00000000	
